<?xml version="1.0" standalone="no"?>
<!DOCTYPE svg PUBLIC "-//W3C//DTD SVG 20010904//EN"
 "http://www.w3.org/TR/2001/REC-SVG-20010904/DTD/svg10.dtd">
<svg version="1.0" xmlns="http://www.w3.org/2000/svg"
 width="200.000000pt" height="200.000000pt" viewBox="0 0 200.000000 200.000000"
 preserveAspectRatio="xMidYMid meet">

<g transform="translate(0.000000,200.000000) scale(0.100000,-0.100000)"
fill="#000000" stroke="none">
<path d="M892 1322 c-35 -22 -82 -77 -82 -97 0 -2 30 13 67 35 l67 39 45 -27
c26 -14 55 -32 66 -39 28 -18 35 -16 35 10 0 18 -16 32 -74 65 -40 23 -75 42
-77 41 -2 0 -23 -13 -47 -27z"/>
<path d="M990 1339 c8 -5 36 -21 63 -35 l47 -24 0 -86 c0 -82 1 -84 20 -74 18
9 20 21 20 94 l0 84 -44 26 c-27 16 -59 26 -83 26 -29 0 -34 -3 -23 -11z"/>
<path d="M873 1238 l-73 -42 0 -49 c0 -27 8 -62 18 -80 l17 -32 3 70 3 70 69
40 c52 30 66 43 58 52 -14 18 -14 18 -95 -29z"/>
<path d="M1160 1183 l0 -68 -70 -40 c-59 -34 -67 -42 -55 -54 12 -12 25 -8 89
29 l76 44 0 48 c0 43 -21 108 -35 108 -3 0 -5 -30 -5 -67z"/>
<path d="M872 1178 c-7 -7 -12 -44 -12 -97 l0 -86 40 -22 c43 -25 127 -33 114
-10 -5 7 3 5 16 -4 24 -16 27 -16 72 9 29 17 55 41 69 66 l23 40 -50 -29 c-27
-15 -57 -33 -66 -39 -18 -11 -30 -7 -115 44 l-53 30 0 -25 c0 -19 9 -31 31
-43 56 -31 65 -44 12 -16 l-53 27 0 84 c0 82 -5 94 -28 71z"/>
<path d="M457 843 c-4 -3 -7 -48 -7 -100 l0 -93 30 0 c27 0 30 3 30 30 0 27 3
30 31 30 27 0 30 3 27 28 -2 21 -9 28 -30 30 -43 5 -33 22 12 22 38 0 40 2 40
30 l0 30 -63 0 c-35 0 -67 -3 -70 -7z"/>
<path d="M630 805 c-12 -28 -20 -69 -20 -101 0 -53 0 -54 30 -54 26 0 30 4 30
26 0 21 4 25 23 22 14 -2 23 -11 25 -25 3 -18 10 -23 34 -23 l30 0 -4 58 c-2
31 -13 75 -23 97 -18 36 -24 40 -63 43 -42 3 -42 3 -62 -43z m74 -31 c9 -23 8
-24 -13 -24 -14 0 -18 5 -14 20 6 24 19 26 27 4z"/>
<path d="M817 843 c-4 -3 -7 -48 -7 -100 l0 -93 80 0 80 0 0 50 c0 49 -1 50
-30 50 -25 0 -30 -4 -30 -25 0 -18 -5 -25 -20 -25 -18 0 -20 7 -20 75 0 72 -1
75 -23 75 -13 0 -27 -3 -30 -7z"/>
<path d="M1007 843 c-4 -3 -7 -48 -7 -100 l0 -93 80 0 80 0 0 50 c0 49 -1 50
-30 50 -25 0 -30 -4 -30 -25 0 -18 -5 -25 -20 -25 -18 0 -20 7 -20 75 0 72 -1
75 -23 75 -13 0 -27 -3 -30 -7z"/>
<path d="M1197 844 c-4 -4 -7 -49 -7 -101 l0 -93 75 0 c73 0 75 1 75 25 0 23
-4 25 -45 25 -52 0 -61 17 -12 22 24 2 33 8 35 26 3 19 -1 22 -27 22 -47 0
-46 18 1 22 38 3 43 6 43 28 0 24 -3 25 -65 28 -36 2 -69 0 -73 -4z"/>
<path d="M1377 843 c-4 -3 -7 -48 -7 -100 l0 -93 30 0 c29 0 30 1 30 47 l0 46
25 -23 c14 -13 25 -34 25 -47 0 -19 5 -23 30 -23 l30 0 0 101 0 100 -27 -3
c-23 -2 -29 -8 -31 -35 l-3 -32 -31 34 c-28 33 -56 44 -71 28z"/>
</g>
</svg>
